<?xml version="1.0" encoding="UTF-8"?>
<svg id="Layer_1" data-name="Layer 1" xmlns="http://www.w3.org/2000/svg" viewBox="0 0 512.5 512.5">
  <defs>
    <style>
      .cls-1 {
        fill: #fff;
      }
    </style>
  </defs>
  <path class="cls-1" d="M504.75,468.55c10,10,10,26.2,0,36.2s-26.2,10-36.2,0l-137.92-137.92c13.52-10.51,25.69-22.68,36.2-36.2l137.92,137.92Z"/>
  <path class="cls-1" d="M409.85,205.05c0,47.32-16.05,90.9-43.02,125.58l-15.68-15.68c-10-10-26.2-10-36.2,0s-10,26.2,0,36.2l15.68,15.68c-34.68,26.97-78.26,43.02-125.58,43.02C91.95,409.85,.25,318.15,.25,205.05,.25,150.01,21.97,100.04,57.31,63.24c.3-.44,.67-.83,1.11-1.14C95.62,23.95,147.57,.25,205.05,.25c113.1,0,204.8,91.7,204.8,204.8Zm-51.2,0c0-42.5-17.2-80.7-45-108.6-27.9-27.8-66.1-45-108.6-45s-80.7,17.2-108.6,45c-27.8,27.9-45,66.1-45,108.6s17.2,80.7,45,108.6c27.9,27.8,66.1,45,108.6,45s80.7-17.2,108.6-45c27.8-27.9,45-66.1,45-108.6Z"/>
  <path class="cls-1" d="M351.15,314.95l15.68,15.68c-10.51,13.52-22.68,25.69-36.2,36.2l-15.68-15.68c-10-10-10-26.2,0-36.2s26.2-10,36.2,0Z"/>
</svg>